<svg xmlns="http://www.w3.org/2000/svg" width="20.87" height="16.398" viewBox="0 0 20.87 16.398">
  <g id="Group_18" data-name="Group 18" transform="translate(-289.482 -7.723)" opacity="0.44">
    <rect id="Rectangle_6" data-name="Rectangle 6" width="20.87" height="16.398" transform="translate(289.482 7.723)" fill="#fff"/>
    <g id="Group_17" data-name="Group 17">
      <g id="Group_15" data-name="Group 15">
        <path id="Path_24" data-name="Path 24" d="M293.145,20h.442V21.93a2.281,2.281,0,0,1-.114.8.974.974,0,0,1-.412.483,1.447,1.447,0,0,1-.781.186,1.6,1.6,0,0,1-.769-.162.927.927,0,0,1-.426-.469,2.21,2.21,0,0,1-.128-.838V20h.443v1.928a1.92,1.92,0,0,0,.08.643.625.625,0,0,0,.279.319.968.968,0,0,0,.482.11.922.922,0,0,0,.7-.221,1.27,1.27,0,0,0,.208-.851Z"/>
        <path id="Path_25" data-name="Path 25" d="M294.262,23.342V20h.411v3.343Z"/>
        <path id="Path_26" data-name="Path 26" d="M296.2,22.974l.059.364a1.689,1.689,0,0,1-.31.036.676.676,0,0,1-.346-.072.388.388,0,0,1-.174-.185,1.478,1.478,0,0,1-.05-.484V21.238h-.3V20.92h.3v-.6l.408-.246v.846h.413v.318h-.413v1.418a.718.718,0,0,0,.022.225.173.173,0,0,0,.071.081.278.278,0,0,0,.14.029A1.292,1.292,0,0,0,296.2,22.974Z"/>
        <path id="Path_27" data-name="Path 27" d="M296.6,23.342V20.92h.37v.367a.988.988,0,0,1,.261-.34.46.46,0,0,1,.263-.082.8.8,0,0,1,.422.132l-.141.381a.59.59,0,0,0-.3-.089.4.4,0,0,0-.242.081.437.437,0,0,0-.153.225,1.587,1.587,0,0,0-.068.48v1.267Z"/>
        <path id="Path_28" data-name="Path 28" d="M299.743,23.043a1.45,1.45,0,0,1-.439.273,1.256,1.256,0,0,1-.453.081.878.878,0,0,1-.613-.2.642.642,0,0,1-.215-.5.664.664,0,0,1,.081-.325.681.681,0,0,1,.212-.236,1.03,1.03,0,0,1,.295-.134,2.689,2.689,0,0,1,.366-.062,3.77,3.77,0,0,0,.732-.141c0-.056,0-.092,0-.108a.458.458,0,0,0-.116-.354.7.7,0,0,0-.468-.138.716.716,0,0,0-.428.1.616.616,0,0,0-.2.358l-.4-.054a1,1,0,0,1,.18-.416.793.793,0,0,1,.363-.245,1.615,1.615,0,0,1,.549-.085,1.5,1.5,0,0,1,.505.072.65.65,0,0,1,.284.185.628.628,0,0,1,.128.278,2.29,2.29,0,0,1,.021.381v.547a5.915,5.915,0,0,0,.026.723.924.924,0,0,0,.1.291h-.429A.858.858,0,0,1,299.743,23.043Zm-.034-.917a2.922,2.922,0,0,1-.671.155,1.624,1.624,0,0,0-.358.082.365.365,0,0,0-.162.134.348.348,0,0,0-.057.195.353.353,0,0,0,.124.274.535.535,0,0,0,.364.109.849.849,0,0,0,.422-.1.645.645,0,0,0,.272-.283,1,1,0,0,0,.066-.412Z"/>
        <path id="Path_29" data-name="Path 29" d="M301.813,20h1.033v1.17h1.129V20h1.038v3.343h-1.038V21.989h-1.129v1.353h-1.033Z"/>
        <path id="Path_30" data-name="Path 30" d="M305.714,20h1.534a1.846,1.846,0,0,1,.734.123,1.19,1.19,0,0,1,.461.353,1.449,1.449,0,0,1,.265.536,2.48,2.48,0,0,1,.082.648,2.238,2.238,0,0,1-.122.831,1.356,1.356,0,0,1-.339.5,1.1,1.1,0,0,1-.465.266,2.392,2.392,0,0,1-.616.091h-1.534Zm1.033.756v1.829H307a1.055,1.055,0,0,0,.46-.073.487.487,0,0,0,.215-.252,1.565,1.565,0,0,0,.077-.58,1.128,1.128,0,0,0-.173-.727.732.732,0,0,0-.574-.2Z"/>
      </g>
      <g id="Group_16" data-name="Group 16">
        <path id="Path_31" data-name="Path 31" d="M290.567,8.933V19.452h18.7V8.933Zm8.105,7.818h-.978v1.456h-1.888V16.751h-3.945V14.969l3.945-4.69h1.888v4.79h.978Zm6.334,1.456L303.362,15l-1.244,1.3v1.9h-2.409V10.413h2.409v2.945l2.523-2.945h3.2L305,13.355l2.971,4.852Z"/>
        <path id="Path_32" data-name="Path 32" d="M295.806,15.069V12.617l-2.084,2.453Z"/>
      </g>
    </g>
  </g>
</svg>
