<svg xmlns="http://www.w3.org/2000/svg" width="10.51" height="10.28" viewBox="0 0 10.51 10.28"><path d="M140.349,461.851a.464.464,0,0,1-.178-.036.459.459,0,0,1-.284-.426v-1.58H139.5a2.466,2.466,0,0,1-2.463-2.464v-3.31a2.466,2.466,0,0,1,2.463-2.464h5.583a2.467,2.467,0,0,1,2.464,2.464v3.31a2.467,2.467,0,0,1-2.464,2.464h-2.072a1.029,1.029,0,0,0-.735.305l-1.6,1.6A.463.463,0,0,1,140.349,461.851Zm-.848-9.587a1.772,1.772,0,0,0-1.77,1.771v3.31a1.772,1.772,0,0,0,1.77,1.771h.5a.579.579,0,0,1,.578.578v1.137l1.207-1.207a1.722,1.722,0,0,1,1.225-.508h2.072a1.773,1.773,0,0,0,1.771-1.771v-3.31a1.773,1.773,0,0,0-1.771-1.771Z" transform="translate(-137.038 -451.571)" fill="#fff"/></svg>