<svg xmlns="http://www.w3.org/2000/svg" width="11.75" height="10.279" viewBox="0 0 11.75 10.279"><path d="M31.209,461.851a.733.733,0,0,1-.4-.116c-.914-.585-5.478-3.657-5.478-6.735a3.285,3.285,0,0,1,5.875-2.161A3.285,3.285,0,0,1,37.085,455c0,3.043-4.562,6.143-5.477,6.733A.729.729,0,0,1,31.209,461.851Zm-2.584-9.585a2.867,2.867,0,0,0-.476.039,2.5,2.5,0,0,0-2.121,2.7c0,2.774,4.631,5.814,5.159,6.151a.043.043,0,0,0,.045,0c.528-.341,5.16-3.411,5.16-6.151a2.5,2.5,0,0,0-2.12-2.7,2.34,2.34,0,0,0-2.65,1.256h0a.436.436,0,0,1-.412.293h0a.436.436,0,0,1-.412-.293A2.2,2.2,0,0,0,28.625,452.266Z" transform="translate(-25.335 -451.572)" fill="#fff"/></svg>