<svg xmlns="http://www.w3.org/2000/svg" width="23.435" height="23.435" viewBox="0 0 23.435 23.435"><g transform="translate(0 -0.001)"><g transform="translate(0 0.001)"><g transform="translate(0 0)"><circle cx="0.5" cy="0.5" r="0.5" transform="translate(15.435 15.435)" fill="#777"/><path d="M10.894,21.605H3.662a1.833,1.833,0,0,1-1.831-1.831V12.268a1.833,1.833,0,0,1,1.831-1.831H16.844a1.833,1.833,0,0,1,1.831,1.831V14.1a.915.915,0,0,0,1.831,0V12.268a3.666,3.666,0,0,0-3.662-3.662h-1.1V5.378A5.442,5.442,0,0,0,10.251,0,5.442,5.442,0,0,0,4.759,5.378V8.606h-1.1A3.666,3.666,0,0,0,0,12.268v7.507a3.666,3.666,0,0,0,3.662,3.662h7.232a.915.915,0,1,0,0-1.831ZM6.589,5.378a3.609,3.609,0,0,1,3.662-3.546,3.609,3.609,0,0,1,3.662,3.546V8.606H6.589V5.378Z" transform="translate(0 -0.001)" fill="#777"/><path d="M274.053,322.17a.915.915,0,0,0-1.277.211l-4.512,6.3a.523.523,0,0,1-.753.039l-2.916-2.846a.915.915,0,0,0-1.279,1.31l2.921,2.851.008.008a2.36,2.36,0,0,0,1.624.649q.077,0,.155-.005a2.36,2.36,0,0,0,1.678-.874l.031-.041,4.531-6.328A.915.915,0,0,0,274.053,322.17Z" transform="translate(-251 -307.261)" fill="#777"/><ellipse cx="1" cy="0.5" rx="1" ry="0.5" transform="translate(11.435 15.435)" fill="#777"/><ellipse cx="1" cy="0.5" rx="1" ry="0.5" transform="translate(4.435 15.435)" fill="#777"/><circle cx="0.5" cy="0.5" r="0.5" transform="translate(8.435 15.435)" fill="#777"/></g></g></g></svg>