<svg xmlns="http://www.w3.org/2000/svg" width="22.239" height="25.747" viewBox="0 0 22.239 25.747"><g transform="translate(-56.157 -305.443)"><path d="M76.724,315.345l-15.207-9.374a3.517,3.517,0,0,0-5.36,2.994v18.663a3.554,3.554,0,0,0,3.509,3.562h.015a3.527,3.527,0,0,0,1.823-.549,1,1,0,1,0-1.045-1.714,1.543,1.543,0,0,1-.782.255,1.56,1.56,0,0,1-1.512-1.554V308.965a1.508,1.508,0,0,1,2.3-1.284l15.208,9.374a1.508,1.508,0,0,1-.007,2.572l-11,6.732a1,1,0,1,0,1.049,1.713l10.993-6.731a3.517,3.517,0,0,0,.013-6Z" fill="#fff"/></g></svg>