<svg xmlns="http://www.w3.org/2000/svg" width="10.652" height="9.678" viewBox="0 0 10.652 9.678"><path d="M261.547,461.55a.477.477,0,0,1-.138-.021.459.459,0,0,1-.327-.46c.2-5.79,3.9-6.621,5.361-6.721v-2.014a.462.462,0,0,1,.783-.332l4.367,4.209a.461.461,0,0,1,0,.664l-4.367,4.21a.463.463,0,0,1-.783-.333v-2.067a5.581,5.581,0,0,0-4.506,2.646A.457.457,0,0,1,261.547,461.55Zm5.589-8.672v1.69a.46.46,0,0,1-.449.462c-1.34.035-4.382.634-4.858,5.262a6.445,6.445,0,0,1,4.835-2.31.447.447,0,0,1,.333.131.462.462,0,0,1,.139.331v1.764l3.8-3.665Z" transform="translate(-261.082 -451.872)" fill="#fff"/></svg>