<?xml version="1.0" encoding="utf-8"?>
<!-- Generator: Adobe Illustrator 16.0.0, SVG Export Plug-In . SVG Version: 6.00 Build 0)  -->
<!DOCTYPE svg PUBLIC "-//W3C//DTD SVG 1.1//EN" "http://www.w3.org/Graphics/SVG/1.1/DTD/svg11.dtd">
<svg version="1.1" id="Layer_1" xmlns="http://www.w3.org/2000/svg" xmlns:xlink="http://www.w3.org/1999/xlink" x="0px" y="0px"
	 width="350px" height="73px" viewBox="0 293.5 350 73" enable-background="new 0 293.5 350 73" xml:space="preserve">
<title>SLT Yellow</title>
<g id="Layer_2">
	<g id="SLT_Yellow">
		<path fill="#FFFFFF" d="M26.627,301.641c0,0-9.106,7.161-25.687,10.515c-0.357,6.395,0.277,12.805,1.879,19.006l5.013,3.105
			c-1.762-5.112-2.918-11.323-2.96-18.846c0,0,13.25-3.04,21.75-9.035c7.137,5.032,17.62,7.987,20.8,8.805l4.262-3.167
			C35.512,308.619,26.627,301.641,26.627,301.641z"/>
		<path fill="#FFFFFF" d="M48.099,321.375c-2.523,27.947-21.472,34.863-21.472,34.863l0,0c0,0-3.134-1.137-6.987-4.355l-2.622,2.683
			c2.913,2.38,6.147,4.335,9.609,5.808c22.553-9.646,25.555-33.604,25.781-43.654L48.099,321.375z"/>
		<polygon fill="#FFFFFF" points="0,331.176 14.993,340.395 55.584,311.015 14.993,354.627 		"/>
		<path fill="#FFFFFF" d="M21.298,329.87c0.003,3.485-2.82,6.312-6.305,6.315c-3.485,0.002-6.313-2.821-6.315-6.306
			s2.82-6.312,6.306-6.315c0.003,0,0.006,0,0.009,0C18.476,323.564,21.298,326.388,21.298,329.87L21.298,329.87z"/>
		<path fill="#FFFFFF" d="M87.792,337.877c0.091,1.58-0.615,3.102-1.879,4.055c-1.253,0.939-3.065,1.409-5.436,1.409
			c-2.372,0-4.274-0.365-5.709-1.095v-3.309c1.816,0.912,3.81,1.414,5.84,1.471c2.324,0,3.486-0.712,3.486-2.137
			c0.016-0.417-0.122-0.824-0.385-1.146c-0.367-0.383-0.795-0.701-1.269-0.939c-0.797-0.42-1.62-0.79-2.462-1.109
			c-2.049-0.805-3.435-1.61-4.158-2.415c-0.758-0.866-1.157-1.989-1.114-3.139c-0.054-1.438,0.644-2.801,1.842-3.599
			c1.234-0.839,2.907-1.259,5.018-1.259c2.05-0.01,4.077,0.43,5.939,1.287l-1.226,2.89c-1.52-0.711-3.164-1.122-4.84-1.208
			c-1.983-0.012-2.974,0.564-2.974,1.729c0.012,0.565,0.295,1.09,0.761,1.41c1.071,0.662,2.212,1.203,3.402,1.612
			c1.125,0.403,2.201,0.935,3.204,1.583c0.617,0.43,1.125,0.997,1.48,1.659C87.65,336.326,87.815,337.099,87.792,337.877z"/>
		<path fill="#FFFFFF" d="M104.402,343.017h-3.796v-11.126c0-1.382-0.258-2.416-0.775-3.092c-0.587-0.715-1.488-1.096-2.41-1.02
			c-1.461,0-2.528,0.47-3.209,1.442c-0.682,0.973-1.024,2.565-1.024,4.807v8.988h-3.759v-18.047h2.96l0.531,2.35h0.193
			c0.499-0.865,1.247-1.56,2.147-1.992c0.961-0.456,2.015-0.683,3.078-0.663c2.735,0,4.547,0.939,5.437,2.819h0.258
			c0.525-0.893,1.294-1.616,2.218-2.086c1.018-0.517,2.147-0.775,3.289-0.752c2.124,0,3.671,0.543,4.642,1.63
			c0.971,1.087,1.453,2.743,1.447,4.967v11.746h-3.759v-11.098c0-1.382-0.258-2.416-0.78-3.092c-0.593-0.713-1.495-1.093-2.42-1.02
			c-1.469,0-2.545,0.47-3.228,1.409c-0.683,0.94-1.023,2.368-1.02,4.285L104.402,343.017z"/>
		<path fill="#FFFFFF" d="M129.567,343.017l-0.756-2.514h-0.132c-0.673,0.942-1.56,1.713-2.589,2.245
			c-1.061,0.434-2.201,0.637-3.345,0.598c-1.748,0-3.112-0.479-4.092-1.438c-0.98-0.959-1.473-2.314-1.476-4.064
			c0-1.861,0.681-3.271,2.044-4.229c1.362-0.959,3.439-1.47,6.23-1.532l3.073-0.094v-0.963c0-1.156-0.263-2.016-0.794-2.589
			c-0.531-0.573-1.358-0.855-2.471-0.855c-0.89-0.003-1.775,0.134-2.622,0.409c-0.824,0.267-1.629,0.588-2.411,0.963L119,326.21
			c1-0.522,2.063-0.914,3.162-1.166c1.063-0.257,2.152-0.391,3.247-0.399c2.265,0,3.973,0.5,5.126,1.499s1.729,2.565,1.729,4.699
			v12.174H129.567z M123.929,340.408c1.207,0.055,2.387-0.365,3.289-1.17c0.873-0.863,1.327-2.063,1.245-3.289v-1.545l-2.284,0.094
			c-1.781,0.066-3.073,0.367-3.886,0.906c-0.814,0.551-1.275,1.491-1.212,2.473c-0.045,0.697,0.211,1.383,0.705,1.879
			c0.605,0.486,1.374,0.721,2.147,0.652H123.929z"/>
		<path fill="#FFFFFF" d="M144.095,324.664c0.63-0.012,1.26,0.042,1.879,0.16l-0.371,3.576c-0.548-0.133-1.109-0.199-1.673-0.197
			c-1.384-0.052-2.723,0.496-3.674,1.503c-0.963,1.064-1.47,2.465-1.409,3.9v9.411h-3.759v-18.047h2.96l0.498,3.181h0.192
			c0.544-1.024,1.332-1.898,2.293-2.547C141.936,324.99,143.003,324.663,144.095,324.664z"/>
		<path fill="#FFFFFF" d="M153.431,340.244c0.94-0.002,1.874-0.15,2.768-0.441v2.89c-0.52,0.216-1.062,0.373-1.616,0.47
			c-0.676,0.125-1.361,0.188-2.049,0.188c-3.583,0-5.375-1.915-5.375-5.746v-9.73h-2.443v-1.696l2.608-1.409l1.287-3.82h2.35v4.013
			h5.07v2.904h-5.075v9.669c-0.062,0.748,0.186,1.488,0.686,2.049C152.125,340.035,152.77,340.273,153.431,340.244z"/>
		<path fill="#FFFFFF" d="M164.031,343.017h-4.905v-25.4h4.905V343.017z"/>
		<path fill="#FFFFFF" d="M165.676,320.06c0-1.623,0.89-2.434,2.669-2.434c1.779,0,2.673,0.812,2.683,2.434
			c0.031,0.664-0.216,1.311-0.681,1.785c-0.557,0.469-1.276,0.7-2.001,0.644C166.565,322.501,165.676,321.691,165.676,320.06z
			 M170.792,343.017h-4.91v-18.24h4.91V343.017z"/>
		<path fill="#FFFFFF" d="M182.586,328.512h-4.229v14.504h-4.924v-14.504h-2.707v-2.401l2.707-1.334v-1.339
			c0-2.077,0.502-3.594,1.508-4.553s2.62-1.438,4.844-1.438c1.541-0.025,3.074,0.234,4.521,0.766l-1.255,3.655
			c-0.882-0.296-1.805-0.455-2.734-0.47c-0.576-0.053-1.143,0.181-1.514,0.625c-0.327,0.47-0.492,1.034-0.469,1.607v1.146h4.229
			L182.586,328.512z"/>
		<path fill="#FFFFFF" d="M190.244,343.346c-2.895,0-5.157-0.812-6.789-2.434c-1.632-1.623-2.446-3.918-2.443-6.884
			c0-3.061,0.754-5.424,2.26-7.09c1.507-1.667,3.59-2.501,6.25-2.504c2.539,0,4.518,0.733,5.934,2.199s2.124,3.502,2.124,6.107
			v2.416h-11.597c-0.016,1.213,0.426,2.387,1.236,3.289c0.871,0.831,2.049,1.262,3.252,1.188c1.033,0.006,2.064-0.109,3.072-0.343
			c1.043-0.256,2.056-0.621,3.021-1.09v3.848c-0.871,0.441-1.795,0.77-2.749,0.973C192.64,343.254,191.443,343.362,190.244,343.346z
			 M189.554,327.953c-0.925-0.049-1.824,0.32-2.448,1.005c-0.641,0.812-0.996,1.813-1.01,2.847h6.883
			c0.049-1.032-0.285-2.046-0.939-2.847C191.399,328.273,190.49,327.906,189.554,327.953z"/>
		<path fill="#FFFFFF" d="M210.819,337.6c0,1.879-0.641,3.305-1.921,4.275c-1.281,0.971-3.199,1.461-5.752,1.471
			c-1.121,0.017-2.241-0.074-3.346-0.273c-0.889-0.168-1.756-0.433-2.588-0.789v-4.111c0.99,0.462,2.021,0.827,3.082,1.09
			c0.982,0.273,1.996,0.422,3.016,0.442c1.777,0,2.67-0.521,2.67-1.564c0.012-0.349-0.117-0.688-0.357-0.94
			c-0.364-0.335-0.775-0.615-1.222-0.831c-0.577-0.313-1.349-0.675-2.316-1.085c-1.077-0.421-2.1-0.97-3.045-1.636
			c-0.605-0.447-1.09-1.038-1.409-1.72c-0.316-0.756-0.467-1.572-0.441-2.391c-0.063-1.493,0.647-2.913,1.879-3.759
			c1.234-0.889,2.99-1.333,5.268-1.33c2.186,0.003,4.345,0.493,6.318,1.433l-1.479,3.59c-0.897-0.39-1.743-0.709-2.522-0.963
			c-0.775-0.248-1.584-0.375-2.396-0.376c-1.447,0-2.171,0.398-2.171,1.194c0.019,0.48,0.28,0.917,0.695,1.16
			c0.979,0.573,2.005,1.059,3.067,1.452c1.092,0.407,2.129,0.949,3.088,1.611c0.613,0.455,1.109,1.049,1.447,1.734
			C210.697,336.014,210.847,336.805,210.819,337.6z"/>
		<path fill="#FFFFFF" d="M218.953,339.38c1.051-0.036,2.092-0.229,3.086-0.573v3.712c-1.426,0.594-2.961,0.877-4.506,0.831
			c-1.959,0-3.393-0.502-4.285-1.512c-0.893-1.011-1.344-2.52-1.344-4.53v-8.795h-2.349v-2.105l2.702-1.664l1.409-3.853h3.134v3.886
			h5.037v3.735h-5.047v8.795c-0.047,0.583,0.168,1.157,0.588,1.565C217.822,339.23,218.383,339.412,218.953,339.38z"/>
		<path fill="#FFFFFF" d="M219.789,324.777h5.37l3.393,10.262c0.317,1.029,0.518,2.092,0.597,3.166h0.099
			c0.108-1.078,0.34-2.141,0.69-3.166l3.332-10.262h5.258l-7.607,20.561c-0.547,1.689-1.586,3.179-2.984,4.275
			c-1.316,0.949-2.906,1.443-4.529,1.41c-0.839,0-1.676-0.094-2.494-0.277v-3.928c0.633,0.146,1.281,0.219,1.931,0.215
			c0.831,0.013,1.638-0.274,2.274-0.808c0.726-0.656,1.253-1.503,1.522-2.443l0.291-0.897L219.789,324.777z"/>
		<path fill="#FFFFFF" d="M242.713,343.017h-4.904v-25.4h4.904V343.017z"/>
		<path fill="#FFFFFF" d="M252.707,343.346c-2.9,0-5.164-0.812-6.789-2.434c-1.626-1.623-2.441-3.918-2.448-6.884
			c0-3.061,0.755-5.424,2.265-7.09s3.593-2.501,6.249-2.504c2.544,0,4.521,0.733,5.935,2.199c1.412,1.466,2.121,3.502,2.123,6.107
			v2.416h-11.6c-0.014,1.213,0.43,2.387,1.24,3.289c0.871,0.832,2.049,1.262,3.251,1.188c1.032,0.007,2.063-0.108,3.068-0.343
			c1.044-0.256,2.059-0.621,3.025-1.09v3.848c-0.87,0.44-1.794,0.768-2.749,0.973C255.102,343.254,253.905,343.362,252.707,343.346z
			 M252.012,327.953c-0.924-0.049-1.821,0.32-2.443,1.005c-0.646,0.816-1.004,1.825-1.015,2.866h6.888
			c0.049-1.032-0.285-2.046-0.939-2.847C253.863,328.285,252.952,327.91,252.012,327.953z"/>
		<path fill="#FFFFFF" d="M269.462,340.244c0.938-0.002,1.87-0.15,2.763-0.441v2.89c-0.52,0.216-1.062,0.373-1.616,0.47
			c-0.675,0.125-1.361,0.188-2.048,0.188c-3.581,0-5.373-1.915-5.375-5.746v-9.73h-2.416v-1.696l2.607-1.409l1.288-3.82h2.349v4.013
			h5.033v2.904h-5.065v9.669c-0.063,0.748,0.186,1.488,0.686,2.049C268.152,340.035,268.799,340.273,269.462,340.244z"/>
		<path fill="#FFFFFF" d="M282.336,324.664c0.631-0.013,1.26,0.041,1.879,0.16l-0.365,3.576c-0.549-0.132-1.109-0.199-1.674-0.197
			c-1.385-0.052-2.726,0.496-3.678,1.503c-0.963,1.065-1.469,2.465-1.41,3.9v9.411h-3.759v-18.047h2.946l0.498,3.181h0.192
			c0.55-1.024,1.342-1.898,2.307-2.547C280.176,324.99,281.244,324.662,282.336,324.664z"/>
		<path fill="#FFFFFF" d="M292.814,343.346c-2.77,0-4.934-0.819-6.494-2.457c-1.56-1.639-2.343-3.895-2.35-6.767
			c0-2.944,0.726-5.261,2.176-6.949c1.451-1.688,3.443-2.524,5.977-2.509c2.346,0,4.201,0.724,5.563,2.171
			c1.362,1.447,2.044,3.438,2.044,5.972v2.053h-11.855c0.051,1.754,0.521,3.1,1.41,4.037c0.879,0.939,2.114,1.409,3.717,1.409
			c0.985,0.006,1.969-0.097,2.932-0.306c0.996-0.234,1.966-0.567,2.895-0.996v3.115c-0.896,0.432-1.844,0.748-2.819,0.939
			C294.955,343.254,293.886,343.351,292.814,343.346z M292.123,327.549c-1.085-0.05-2.139,0.371-2.89,1.156
			c-0.794,0.951-1.249,2.14-1.292,3.378h8.067c0-1.489-0.376-2.617-1.062-3.383C294.223,327.918,293.188,327.497,292.123,327.549
			L292.123,327.549z"/>
		<path fill="#FFFFFF" d="M317.204,343.017h-3.811v-11.093c0-1.41-0.272-2.435-0.827-3.121s-1.409-1.024-2.631-1.024
			c-1.598,0-2.763,0.47-3.505,1.409c-0.743,0.94-1.109,2.562-1.109,4.816v9.012h-3.769v-18.047h2.961l0.531,2.35h0.191
			c0.551-0.873,1.345-1.565,2.284-1.992c1.03-0.476,2.154-0.715,3.289-0.7c4.263,0.025,6.395,2.23,6.395,6.616V343.017z"/>
		<path fill="#FFFFFF" d="M325.995,343.346c-2.029,0.088-3.973-0.827-5.196-2.448c-1.253-1.636-1.88-3.925-1.88-6.869
			s0.627-5.249,1.88-6.912c1.246-1.641,3.223-2.56,5.281-2.453c2.333,0,4.112,0.875,5.337,2.626h0.192
			c-0.156-1.016-0.247-2.041-0.272-3.068v-6.606h3.797v25.372h-2.96l-0.658-2.35h-0.179
			C330.112,342.443,328.332,343.346,325.995,343.346z M327.01,340.244c1.556,0,2.683-0.47,3.393-1.33
			c0.709-0.859,1.071-2.349,1.095-4.317v-0.536c0-2.273-0.365-3.89-1.095-4.848c-0.729-0.94-1.88-1.41-3.425-1.41
			c-1.245-0.046-2.419,0.58-3.073,1.64c-0.718,1.09-1.076,2.648-1.076,4.675c0,2.002,0.348,3.524,1.043,4.576
			c0.698,1.041,1.897,1.631,3.148,1.551H327.01z"/>
		<path fill="#FFFFFF" d="M350,337.877c0.091,1.58-0.614,3.102-1.88,4.055c-1.253,0.939-3.064,1.409-5.436,1.409
			s-4.274-0.365-5.709-1.095v-3.309c1.815,0.912,3.81,1.414,5.84,1.471c2.313,0,3.468-0.705,3.468-2.118
			c0.016-0.417-0.121-0.824-0.385-1.146c-0.367-0.384-0.796-0.701-1.269-0.94c-0.798-0.418-1.62-0.789-2.462-1.108
			c-2.049-0.806-3.436-1.61-4.158-2.415c-0.747-0.869-1.135-1.989-1.086-3.134c-0.062-1.447,0.637-2.82,1.842-3.623
			c1.229-0.839,2.897-1.259,5.009-1.259c2.049-0.016,4.076,0.417,5.939,1.269l-1.222,2.89c-1.522-0.711-3.167-1.122-4.845-1.208
			c-2.002,0-3.002,0.583-3.002,1.748c0.02,0.57,0.313,1.095,0.789,1.41c1.07,0.662,2.212,1.203,3.401,1.612
			c1.126,0.403,2.201,0.935,3.205,1.583c0.616,0.43,1.124,0.997,1.479,1.659C349.858,336.326,350.022,337.099,350,337.877z"/>
	</g>
</g>
</svg>
