<?xml version="1.0" encoding="utf-8"?>
<!-- Generator: Adobe Illustrator 24.0.1, SVG Export Plug-In . SVG Version: 6.00 Build 0)  -->
<svg version="1.1" id="Layer_1" xmlns="http://www.w3.org/2000/svg" xmlns:xlink="http://www.w3.org/1999/xlink" x="0px" y="0px"
	 viewBox="0 0 22.1 22.1" style="enable-background:new 0 0 22.1 22.1;" xml:space="preserve">
<style type="text/css">
	.st0{fill:#303030;}
</style>
<g id="Padding__x26__Artboard">
</g>
<g id="Icons">
	<g>
		<path class="st0" d="M11,0C5,0,0,5,0,11s5,11,11,11s11-5,11-11S17.1,0,11,0z M10.6,14.4c0.1,0.2-0.5,0.7-0.5,0.8
			c0,0-1.1-0.5-1.2-0.6c-0.2-0.1-0.6-1.3-0.6-1.3l-0.4-0.4c0,0-0.9-0.6-0.9-0.7c-0.1,0-0.2-1.2-0.3-1.3c0-0.1-0.4-0.5-0.5-0.5
			c-0.1-0.1-0.1-1.1-0.1-1.1s0-0.6,0.4-1.1C6.7,7.7,6.7,7,6.6,6.8C6.5,6.7,5.9,6.9,5.9,6.9S5.4,6.6,5.4,6.7L5.1,6.1
			c0,0-1.9-0.1-1.9-0.2c0,0,3-4.8,9.2-4.1h0.1c0.3,0,0.6,0,0.8,0.3c0,0.1,0.7,0.6,0.7,0.6c0,0-1.7,0-1.7,0l-0.4,0.3l1.6,0.9
			c-0.2,0.1-0.7,0.2-0.9,0.3c-0.2,0.1-0.4,0.2-0.5,0.3l-0.6,0.5l-0.6,0.8l0.8,0.6c0,0,1,0.7,1,0.8c0,0,0.2-0.6,0.2-0.6
			c0-0.5,0-1-0.1-1.5c0.2,0.1,0.3,0.1,0.5,0.2L14,5.3c0,0,0.7,0.5,0.8,0.6c0.1,0.1,0.4,0.7,0.4,0.7c0,0.1-0.1,0.7,0.1,0.7
			c0,0,0.1,0,0.1,0C15.5,7.2,15.8,7,16,6.9c0.1-0.1,0.3-0.3,0.5-0.3c0,0-0.2,0.6-0.2,0.6c0,0-0.6,1-0.9,1.4
			c-0.1,0.1-0.2,0.2-0.3,0.3l-0.8,0.8l0.3,0.5l-0.7,0.8c-0.1,0.1-0.1,0.1-0.2,0.2L13,11.9c0,0-0.8,0.2-0.8,0.2c0,0-0.6,0.1-0.6,0.1
			s-1.1-0.1-1.3,0.5C10.1,13.4,10.5,14.3,10.6,14.4z M18.9,11.6c0.1,0-0.4,0.7-0.4,0.8c0,0.1-0.6,0.7-0.6,0.7L17,13.1
			c0.1-0.8,0.8-1.4,1.7-1.5C18.8,11.6,18.8,11.6,18.9,11.6z M13.8,14.3l-0.4-0.6c0,0,0.2-0.3,0.2-0.3s1.6-0.2,1.7-0.2
			c0.1,0,0.4,0.5,0.4,0.5s-0.5,0.7-0.7,0.7C14.8,14.4,13.8,14.3,13.8,14.3z M14.3,16.5c0,0-0.2,0.1-0.4,0.2
			c-0.2,0.1-0.4,0.2-0.5,0.1s-0.2-0.2-0.4-0.3c-0.3-0.2-0.6-0.4-0.8-0.4c-0.2-0.1-0.6-0.4-0.6-0.5c0-0.1,0.2-0.4,0.2-0.5
			c0-0.1,0-0.6,0.1-0.5c0.1,0,0.3-0.1,0.5,0c0.2,0.1,0.5,0.2,0.6,0.4c0.1,0.1,0.2,0.4,0.4,0.5c0.2,0.1,0.5,0.2,0.5,0.4
			c0,0.2,0.2,0.5,0.2,0.5L14.3,16.5z M14.6,19.4c-0.9-0.4-1.1-0.8-1-0.9c0.1-0.1,0.6-0.5,0.8-0.8c0.2-0.2,1-1.2,1-1.2L15.1,16
			l0.7-0.4c0.2-0.1,0.5-0.2,0.8-0.2l0.7-0.1c0,0,0.1,0,0.1,0l1.2,0c0,0,1.1-0.3,0.9,0C17.1,19.6,14.6,19.4,14.6,19.4z"/>
	</g>
</g>
</svg>
