<?xml version="1.0" encoding="utf-8"?>
<!-- Generator: Adobe Illustrator 24.0.1, SVG Export Plug-In . SVG Version: 6.00 Build 0)  -->
<svg version="1.1" id="Layer_1" xmlns="http://www.w3.org/2000/svg" xmlns:xlink="http://www.w3.org/1999/xlink" x="0px" y="0px"
	 viewBox="0 0 62.4 24" style="enable-background:new 0 0 62.4 24;" xml:space="preserve">
<style type="text/css">
	.st0{fill:#4267B2;}
	.st1{fill:#FFFFFF;}
</style>
<path class="st0" d="M3.7,0h54.9c2,0,3.7,1.3,3.7,2.8v18.2c0,1.6-1.7,2.8-3.7,2.8H3.7c-2,0-3.7-1.3-3.7-2.8V2.8C0,1.3,1.7,0,3.7,0z"
	/>
<g>
	<path class="st1" d="M24.2,9.8c0.1,2.1-1.6,3.9-3.8,4c-0.2,0-0.3,0-0.5,0h-2.2V18h-2.3V5.8H20c2.1-0.2,4,1.4,4.2,3.5
		C24.2,9.5,24.2,9.7,24.2,9.8z M21.9,9.8c0-1-0.7-1.8-1.7-1.8c-0.1,0-0.1,0-0.2,0h-2.1v3.6H20c1,0.1,1.8-0.6,1.9-1.6
		C21.9,10,21.9,9.9,21.9,9.8z"/>
	<path class="st1" d="M33,13.8c0,2.3-1.9,4.2-4.2,4.2c-2.3,0-4.2-1.9-4.2-4.2c0,0,0,0,0,0c0-2.3,1.9-4.2,4.2-4.2S33,11.5,33,13.8
		C33,13.8,33,13.8,33,13.8z M30.7,13.8c0-1.1-0.9-2-2-2s-2,0.9-2,2s0.9,2,2,2S30.7,14.9,30.7,13.8z"/>
	<path class="st1" d="M40.4,15.6c0,1.5-1.4,2.5-3.3,2.5c-1.8,0-3.3-1-3.6-2l1.7-0.9c0.3,0.5,0.9,0.8,1.5,0.8c0.6,0,1.3-0.1,1.3-0.6
		s-0.4-0.5-1.6-0.9c-1.8-0.6-2.6-1.3-2.6-2.6c0-1.2,1-2.4,3.2-2.4c1.4-0.1,2.7,0.7,3.1,2.1l-1.8,0.5c-0.2-0.4-0.5-0.7-1-0.7
		c-0.9-0.1-1.1,0.4-1.1,0.6c0,0.2,0.3,0.5,1.6,0.9C39.7,13.5,40.4,14.3,40.4,15.6z"/>
	<path class="st1" d="M46.8,17.3c-0.6,0.5-1.4,0.8-2.2,0.8c-1.3,0.2-2.6-0.8-2.7-2.1c0-0.2,0-0.4,0-0.6v-3.6h-1.2V9.6h1.2V7.8
		l2.3-0.5v2.4h2v2.2h-2v2.8c0,0.7,0.2,1.2,0.9,1.2c0.4,0,0.7-0.1,1-0.4L46.8,17.3z"/>
</g>
</svg>
