<svg id="Layer_1" data-name="Layer 1" xmlns="http://www.w3.org/2000/svg" viewBox="0 0 56 24"><defs><style>.cls-1{fill:#4267b2;}.cls-2{fill:#fff;}</style></defs><rect class="cls-1" width="56" height="24" rx="3.08"/><path class="cls-2" d="M14.44,13H12.9v3.8H10.8V5.71h4.1a3.54,3.54,0,0,1,3.85,3.64,3.42,3.42,0,0,1-2.11,3.32L19,16.79H16.64ZM12.9,11h1.95a1.58,1.58,0,0,0,1.71-1.63,1.57,1.57,0,0,0-1.71-1.62H12.9Z" transform="translate(-0.65 -0.58)"/><path class="cls-2" d="M21.11,13.73A1.7,1.7,0,0,0,22.8,15a1.67,1.67,0,0,0,1.41-.68l1.74.85a3.58,3.58,0,0,1-3.15,1.76,3.85,3.85,0,0,1-3.86-4,3.76,3.76,0,0,1,3.78-3.92c2.19,0,3.54,1.72,3.54,3.92a3.64,3.64,0,0,1-.07.76Zm0-1.47h3.17A1.49,1.49,0,0,0,22.72,11,1.61,1.61,0,0,0,21.09,12.26Z" transform="translate(-0.65 -0.58)"/><path class="cls-2" d="M35,13a3.69,3.69,0,0,1-3.67,4,2.94,2.94,0,0,1-2-.79v4.11h-2.1V9.16h2.1v.65a3,3,0,0,1,2-.76A3.67,3.67,0,0,1,35,13Zm-2.1,0a1.81,1.81,0,1,0-3.6,0,1.81,1.81,0,1,0,3.6,0Z" transform="translate(-0.65 -0.58)"/><path class="cls-2" d="M38.15,4.92V16.79h-2.1V4.92Z" transform="translate(-0.65 -0.58)"/><path class="cls-2" d="M43.78,16.63c-.84,2.16-1.68,3.69-4.28,3.33L39.83,18c.67.11,1.27.16,1.86-1.35L39,9.16h2.17l1.61,4.73,1.62-4.73H46.5S44.25,15.44,43.78,16.63Z" transform="translate(-0.65 -0.58)"/></svg>