<svg xmlns="http://www.w3.org/2000/svg" width="14.366" height="22.985" viewBox="0 0 14.366 22.985"><path d="M64.845,257.418H54.789a2.158,2.158,0,0,0-2.155,2.155v18.676a2.157,2.157,0,0,0,2.155,2.154H64.845A2.157,2.157,0,0,0,67,278.249V259.573A2.158,2.158,0,0,0,64.845,257.418Zm-10.056,1.437H64.845a.719.719,0,0,1,.718.718v.718H54.071v-.718A.719.719,0,0,1,54.789,258.855Zm10.774,2.873v14.366H54.071V261.728Zm-.718,17.239H54.789a.719.719,0,0,1-.718-.718v-.719H65.563v.719A.719.719,0,0,1,64.845,278.967Z" transform="translate(-52.634 -257.418)" fill="#383838"/></svg>