<?xml version="1.0" encoding="utf-8"?>
<!-- Generator: Adobe Illustrator 24.0.1, SVG Export Plug-In . SVG Version: 6.00 Build 0)  -->
<svg version="1.1" id="Layer_1" xmlns="http://www.w3.org/2000/svg" xmlns:xlink="http://www.w3.org/1999/xlink" x="0px" y="0px"
	 viewBox="0 0 86.1 16.2" style="enable-background:new 0 0 86.1 16.2;" xml:space="preserve">
<style type="text/css">
	.st0{fill:url(#SVGID_1_);}
	.st1{fill:url(#SVGID_2_);}
	.st2{fill:url(#SVGID_3_);}
	.st3{enable-background:new    ;}
	.st4{fill:#FFFFFF;}
</style>
<linearGradient id="SVGID_1_" gradientUnits="userSpaceOnUse" x1="-850.8354" y1="483.5679" x2="-849.9684" y2="482.6999" gradientTransform="matrix(14.072 0 0 -8.124 11973.9502 3929.0764)">
	<stop  offset="0.155" style="stop-color:#EC2079"/>
	<stop  offset="0.312" style="stop-color:#E82078"/>
	<stop  offset="0.467" style="stop-color:#DC2076"/>
	<stop  offset="0.621" style="stop-color:#C82073"/>
	<stop  offset="0.774" style="stop-color:#AC206F"/>
	<stop  offset="0.888" style="stop-color:#93216C"/>
	<stop  offset="1" style="stop-color:#6B1F60"/>
</linearGradient>
<path class="st0" d="M4,0L2.8,0.7L2.4,0.9L1.6,1.4L1.2,1.6L0,2.3l0.8,0.5l0.8,0.4l0.2,0.1l0.6,0.3l0.8,0.5l0.4,0.2L4,4.6l6.1,3.5
	l0.4-0.2l1.2-0.7l0.8-0.5l0.8-0.4l0.8-0.5L4,0z"/>
<linearGradient id="SVGID_2_" gradientUnits="userSpaceOnUse" x1="-824.0179" y1="497.9114" x2="-825.2009" y2="497.2474" gradientTransform="matrix(10.079 0 0 -10.427 8320.3555 5199.2412)">
	<stop  offset="0.155" style="stop-color:#EC2079"/>
	<stop  offset="0.312" style="stop-color:#E82078"/>
	<stop  offset="0.467" style="stop-color:#DC2076"/>
	<stop  offset="0.621" style="stop-color:#C82073"/>
	<stop  offset="0.774" style="stop-color:#AC206F"/>
	<stop  offset="0.888" style="stop-color:#93216C"/>
	<stop  offset="1" style="stop-color:#6B1F60"/>
</linearGradient>
<path class="st1" d="M13.3,6.3l-0.8,0.4l-0.8,0.5l-1.2,0.7l-0.4,0.2L4,11.6v4.6l10.1-5.8V5.8L13.3,6.3z"/>
<linearGradient id="SVGID_3_" gradientUnits="userSpaceOnUse" x1="-685.9261" y1="509.9156" x2="-685.9261" y2="510.9207" gradientTransform="matrix(3.99 0 0 -13.942 2738.8425 7125.4619)">
	<stop  offset="0.155" style="stop-color:#EC2079"/>
	<stop  offset="0.312" style="stop-color:#E82078"/>
	<stop  offset="0.467" style="stop-color:#DC2076"/>
	<stop  offset="0.621" style="stop-color:#C82073"/>
	<stop  offset="0.774" style="stop-color:#AC206F"/>
	<stop  offset="0.888" style="stop-color:#93216C"/>
	<stop  offset="1" style="stop-color:#6B1F60"/>
</linearGradient>
<path class="st2" d="M3.4,4.3L3.2,4.1l0,0L2.4,3.7L1.8,3.3L1.6,3.2L0.8,2.8L0,2.3v11.6l1.2,0.7l1.2,0.7l0.4,0.2L4,16.2V4.6L3.4,4.3z
	"/>
<g class="st3">
	<path class="st4" d="M21.7,12.2c-1,0-1.8-0.5-2.4-1L20,10c0.5,0.5,1.2,0.8,1.8,0.8c0.5,0,0.9-0.2,0.9-0.7c0-0.5-0.5-0.6-0.8-0.7
		s-0.8-0.3-1-0.4c-0.2-0.1-0.5-0.2-0.8-0.5c-0.3-0.3-0.5-0.7-0.5-1.3c0-0.6,0.3-1.2,0.7-1.5c0.4-0.3,1-0.5,1.8-0.5s1.7,0.4,2.1,0.8
		l-0.7,1.1c-0.4-0.4-1-0.7-1.5-0.7s-0.9,0.2-0.9,0.6s0.4,0.6,0.7,0.7c0.3,0.1,0.8,0.3,1,0.4c0.9,0.3,1.5,0.9,1.5,1.8
		C24.3,11.5,23,12.2,21.7,12.2z"/>
	<path class="st4" d="M27.5,9.6h-0.8v2.5h-1.6V5.4h2.4C28.9,5.4,30,6,30,7.5S28.9,9.6,27.5,9.6z M27.3,6.6h-0.6v1.8h0.6
		c0.6,0,1.1-0.2,1.1-0.9C28.4,6.8,27.9,6.6,27.3,6.6z"/>
	<path class="st4" d="M33.9,12.2c-2,0-3.6-1.3-3.6-3.5s1.6-3.5,3.6-3.5s3.6,1.3,3.6,3.5S35.9,12.2,33.9,12.2z M33.9,6.6
		c-1.1,0-2,0.8-2,2.1s0.8,2.1,2,2.1s2-0.8,2-2.1C35.9,7.4,35.1,6.6,33.9,6.6z"/>
	<path class="st4" d="M41.9,12.1l-1.4-2.6H40v2.6h-1.6V5.4h2.4c1.3,0,2.5,0.5,2.5,2c0,1.3-0.8,1.8-1.3,1.9l1.7,2.8H41.9z M40.6,6.6
		H40v1.7h0.6c0.6,0,1.2-0.2,1.2-0.9C41.8,6.7,41.2,6.6,40.6,6.6z"/>
	<path class="st4" d="M47,6.6v5.5h-1.6V6.6h-1.7V5.4h5.1v1.2H47z"/>
	<path class="st4" d="M51.2,12.2c-1,0-1.8-0.5-2.4-1l0.8-1.2c0.5,0.5,1.2,0.8,1.8,0.8c0.5,0,0.9-0.2,0.9-0.7c0-0.5-0.5-0.6-0.8-0.7
		s-0.8-0.3-1-0.4c-0.2-0.1-0.5-0.2-0.8-0.5c-0.3-0.3-0.5-0.7-0.5-1.3c0-0.6,0.3-1.2,0.7-1.5c0.4-0.3,1-0.5,1.8-0.5s1.7,0.4,2.1,0.8
		L53,7.2c-0.4-0.4-1-0.7-1.5-0.7s-0.9,0.2-0.9,0.6s0.4,0.6,0.7,0.7c0.3,0.1,0.8,0.3,1,0.4c0.9,0.3,1.5,0.9,1.5,1.8
		C53.8,11.5,52.5,12.2,51.2,12.2z"/>
	<path class="st4" d="M59.9,12.1h-1.5l-2.5-6.7h1.7l1.6,4.6l1.6-4.6h1.7L59.9,12.1z"/>
	<path class="st4" d="M63,12.1V5.4h1.6v6.7H63z"/>
	<path class="st4" d="M68.1,12.1h-2.3V5.4h2.3c2.1,0,3.7,1.1,3.7,3.4C71.8,11,70.2,12.1,68.1,12.1z M68.2,6.7h-0.8v4.1h0.8
		c1.2,0,2-0.8,2-2C70.2,7.5,69.5,6.7,68.2,6.7z"/>
	<path class="st4" d="M72.7,12.1V5.4H77v1.3h-2.8V8h2.6v1.3h-2.6v1.6h2.9v1.3H72.7z"/>
	<path class="st4" d="M81.3,12.2c-2,0-3.6-1.3-3.6-3.5s1.6-3.5,3.6-3.5s3.6,1.3,3.6,3.5S83.3,12.2,81.3,12.2z M81.3,6.6
		c-1.1,0-2,0.8-2,2.1s0.8,2.1,2,2.1s2-0.8,2-2.1C83.3,7.4,82.5,6.6,81.3,6.6z"/>
</g>
</svg>
