<?xml version="1.0" encoding="utf-8"?>
<!-- Generator: Adobe Illustrator 23.0.3, SVG Export Plug-In . SVG Version: 6.00 Build 0)  -->
<svg version="1.1" id="Слой_1" xmlns="http://www.w3.org/2000/svg" xmlns:xlink="http://www.w3.org/1999/xlink" x="0px" y="0px"
	 viewBox="0 0 84 24" style="enable-background:new 0 0 84 24;" xml:space="preserve">
<style type="text/css">
	.st0{enable-background:new    ;}
</style>
<g>
	<g class="st0">
		<path d="M16,12.2c1.8,0.8,2.6,2.3,2.6,4.1c0,3.5-2.4,6.4-6.9,6.4H1.5V2.5h9.4c3.8,0,6.9,2.7,6.9,6.2C17.8,9.9,17.1,11.4,16,12.2z
			 M4.1,4.7v16h7.6c2.4,0,4.3-2.1,4.3-4.3c0-1.9-1.6-3.7-3.7-3.8v-0.1c1.6-0.3,2.8-2.2,2.8-3.7c0-2.2-1.9-4.1-4.3-4.1H4.1z M4.5,4.9
			v7.6h6.4c2.3,0,4-1.7,4-3.8c0-2-1.8-3.8-4-3.8H4.5z M4.5,12.8v7.6h7.3c2.2,0,4-1.9,4-4c0-2.1-1.8-3.6-4-3.6H4.5z M10.5,7.1
			c2.3,0,2.3,3.2,0,3.2H6.9V7.1H10.5z M11.4,18.2H6.9v-3.3h4.5C13.7,14.8,13.7,18.2,11.4,18.2z"/>
		<path d="M41.7,2.3c4.6,0,9.5,2.3,10.3,7.7c-1.9,0-3.6,0-5.5,0c-0.8-2.1-2.5-3-4.8-3c-3.3,0-5.5,2.3-5.5,5.7c0,3,2.1,5.6,5.5,5.6
			c2.4,0,4.3-1.1,4.9-3.3c1.9,0,3.6,0,5.5,0c-0.8,5.7-5.8,8-10.4,8c-5.6,0-11.3-3.5-11.3-10.4C30.4,5.7,36.1,2.3,41.7,2.3z
			 M48.4,16.8c-1.4,2.5-3.8,3.7-6.7,3.7c-4.1,0-8.2-2.8-8.2-7.8c0-5.1,4.1-7.9,8.2-7.9c2.8,0,5.2,1.1,6.6,3.4h0.4
			c-1.4-2.4-4-3.6-7-3.6c-4.2,0-8.5,2.9-8.5,8.2c0,5.3,4.3,8.2,8.5,8.1c3,0,5.8-1.4,7.1-3.9H48.4z"/>
		<path d="M75,2.3c4.6,0,9.5,2.3,10.3,7.7c-1.9,0-3.6,0-5.5,0c-0.8-2.1-2.5-3-4.8-3c-3.3,0-5.5,2.3-5.5,5.7c0,3,2.1,5.6,5.5,5.6
			c2.4,0,4.3-1.1,4.9-3.3c1.9,0,3.6,0,5.5,0c-0.8,5.7-5.8,8-10.4,8c-5.6,0-11.3-3.5-11.3-10.4C63.8,5.7,69.4,2.3,75,2.3z M81.8,16.8
			c-1.4,2.5-3.8,3.7-6.7,3.7c-4.1,0-8.2-2.8-8.2-7.8c0-5.1,4.1-7.9,8.2-7.9c2.8,0,5.2,1.1,6.6,3.4H82c-1.4-2.4-4-3.6-7-3.6
			c-4.2,0-8.5,2.9-8.5,8.2c0,5.3,4.3,8.2,8.5,8.1c3,0,5.8-1.4,7.1-3.9H81.8z"/>
	</g>
</g>
</svg>
