<svg width="17" height="4" viewBox="0 0 17 4" fill="none" xmlns="http://www.w3.org/2000/svg">
<path fill-rule="evenodd" clip-rule="evenodd" d="M2.625 4C3.72957 4 4.625 3.10457 4.625 2C4.625 0.895431 3.72957 0 2.625 0C1.52043 0 0.625 0.895431 0.625 2C0.625 3.10457 1.52043 4 2.625 4ZM10.625 2C10.625 3.10457 9.72957 4 8.625 4C7.52043 4 6.625 3.10457 6.625 2C6.625 0.895431 7.52043 0 8.625 0C9.72957 0 10.625 0.895431 10.625 2ZM16.625 2C16.625 3.10457 15.7296 4 14.625 4C13.5204 4 12.625 3.10457 12.625 2C12.625 0.895431 13.5204 0 14.625 0C15.7296 0 16.625 0.895431 16.625 2Z" fill="#61676F"/>
</svg>
