<svg id="Layer_1" data-name="Layer 1" xmlns="http://www.w3.org/2000/svg" viewBox="0 0 64 24"><defs><style>.cls-1{fill:#f6f7f9;}.cls-2{fill:#ced0d4;}.cls-3{fill:#4b4f56;}</style></defs><rect class="cls-1" x="0.5" y="0.5" width="63" height="23"/><path class="cls-2" d="M63.75,1.67v22h-62v-22h62m1-1H.75v24h64V.67Z" transform="translate(-0.75 -0.67)"/><path class="cls-3" d="M12.88,8.81a4,4,0,0,1,3-1.19,4,4,0,0,1,3.52,1.6A3.43,3.43,0,0,1,20,11H18a2.78,2.78,0,0,0-.5-1,2,2,0,0,0-1.6-.63,2,2,0,0,0-1.7.89,4.37,4.37,0,0,0-.62,2.51,3.79,3.79,0,0,0,.66,2.43,2.05,2.05,0,0,0,1.67.81,1.89,1.89,0,0,0,1.58-.69,3,3,0,0,0,.5-1.12h2a4.29,4.29,0,0,1-1.32,2.56,3.85,3.85,0,0,1-2.73,1,4.08,4.08,0,0,1-3.24-1.33,5.37,5.37,0,0,1-1.18-3.68A5.31,5.31,0,0,1,12.88,8.81Z" transform="translate(-0.75 -0.67)"/><path class="cls-3" d="M24.32,13.11a3.1,3.1,0,0,0,.75-.16.57.57,0,0,0,.4-.53.63.63,0,0,0-.31-.61,2,2,0,0,0-.91-.16,1.24,1.24,0,0,0-.95.32,1.33,1.33,0,0,0-.26.66h-1.8a2.73,2.73,0,0,1,.52-1.54,3.08,3.08,0,0,1,2.56-.94,4.56,4.56,0,0,1,2.09.46,1.79,1.79,0,0,1,.91,1.76v3.27c0,.23,0,.5,0,.83a1.07,1.07,0,0,0,.12.49.67.67,0,0,0,.27.22v.28h-2a1.86,1.86,0,0,1-.12-.41c0-.13,0-.27-.05-.43a3.92,3.92,0,0,1-.9.71,2.71,2.71,0,0,1-1.37.35,2.37,2.37,0,0,1-1.61-.56A2,2,0,0,1,21,15.56a2,2,0,0,1,1-1.91,4.56,4.56,0,0,1,1.65-.46Zm1.14.87a1.51,1.51,0,0,1-.36.18,2.72,2.72,0,0,1-.5.13l-.43.08a2.77,2.77,0,0,0-.85.26.84.84,0,0,0-.45.79.82.82,0,0,0,.27.69,1,1,0,0,0,.66.21A2,2,0,0,0,24.93,16a1.51,1.51,0,0,0,.53-1.29Z" transform="translate(-0.75 -0.67)"/><path class="cls-3" d="M34.71,10.73a2.33,2.33,0,0,1,.7,1.92v4.81H33.5V13.11a2,2,0,0,0-.15-.86,1,1,0,0,0-1-.55,1.31,1.31,0,0,0-1.3.8,2.85,2.85,0,0,0-.18,1.09v3.87H29V10.33h1.8v1a3.14,3.14,0,0,1,.68-.79,2.34,2.34,0,0,1,1.46-.43A2.72,2.72,0,0,1,34.71,10.73Z" transform="translate(-0.75 -0.67)"/><path class="cls-3" d="M41.42,12.88a1.74,1.74,0,0,0-.27-.72,1.14,1.14,0,0,0-1-.44,1.29,1.29,0,0,0-1.29.94A3.69,3.69,0,0,0,38.69,14a3.41,3.41,0,0,0,.19,1.26,1.24,1.24,0,0,0,1.26.89,1.14,1.14,0,0,0,.93-.35,1.8,1.8,0,0,0,.33-.92h1.91a3,3,0,0,1-.62,1.61,3,3,0,0,1-2.6,1.23,3.05,3.05,0,0,1-2.54-1A4.17,4.17,0,0,1,36.74,14a4.17,4.17,0,0,1,.9-2.86,3.13,3.13,0,0,1,2.48-1,3.76,3.76,0,0,1,2.2.6,2.81,2.81,0,0,1,1,2.13Z" transform="translate(-0.75 -0.67)"/><path class="cls-3" d="M49.26,10.46a2.85,2.85,0,0,1,1.23,1.06A3.54,3.54,0,0,1,51.06,13a9.13,9.13,0,0,1,.06,1.42h-5.2a1.72,1.72,0,0,0,.75,1.51,1.88,1.88,0,0,0,1,.26,1.55,1.55,0,0,0,1-.32,1.51,1.51,0,0,0,.39-.49H51a2.35,2.35,0,0,1-.69,1.29,3.47,3.47,0,0,1-2.68,1,3.89,3.89,0,0,1-2.52-.88A3.49,3.49,0,0,1,44,14a3.83,3.83,0,0,1,1-2.84,3.42,3.42,0,0,1,2.55-1A4.13,4.13,0,0,1,49.26,10.46Zm-2.79,1.61a1.94,1.94,0,0,0-.5,1.11h3.21a1.57,1.57,0,0,0-.49-1.13,1.63,1.63,0,0,0-1.11-.38A1.47,1.47,0,0,0,46.47,12.07Z" transform="translate(-0.75 -0.67)"/><path class="cls-3" d="M54,17.46H52.1V7.8H54Z" transform="translate(-0.75 -0.67)"/></svg>