<svg xmlns="http://www.w3.org/2000/svg" width="389" height="40" viewBox="0 0 389 40"><g fill="none" fill-rule="evenodd"><path fill="#000" d="M21.805 6.217v5.85H8.35v7.65h10.305v5.626H8.35v7.807h13.455V39H.7V6.218h21.105zm21.15 14.986c-.21.255-.412.457-.608.607-.195.15-.472.225-.832.225-.345 0-.656-.082-.934-.247-.27-.166-.58-.35-.93-.552-.34-.202-.75-.386-1.21-.55-.46-.166-1.04-.248-1.73-.248-.85 0-1.59.157-2.21.472-.62.315-1.13.765-1.54 1.35-.4.585-.7 1.3-.9 2.15-.19.846-.29 1.802-.29 2.867 0 2.236.43 3.953 1.3 5.153.86 1.2 2.05 1.8 3.57 1.8.81 0 1.45-.1 1.93-.304.47-.202.87-.427 1.2-.675.33-.24.64-.47.91-.68.28-.21.63-.31 1.05-.31.55 0 .97.21 1.26.61l2.02 2.5c-.72.83-1.48 1.5-2.27 2.02-.8.52-1.61.92-2.44 1.22-.83.3-1.67.5-2.51.61-.84.12-1.66.17-2.45.17-1.42 0-2.78-.27-4.08-.81-1.29-.54-2.43-1.32-3.42-2.35-.98-1.03-1.76-2.29-2.34-3.79-.57-1.5-.86-3.21-.86-5.13 0-1.68.25-3.25.76-4.71.5-1.46 1.25-2.73 2.23-3.8.98-1.07 2.2-1.91 3.647-2.53 1.45-.61 3.123-.92 5.03-.92 1.83 0 3.433.29 4.813.88s2.62 1.44 3.73 2.57L43 21.25zm15.435-5.895c1.77 0 3.382.277 4.837.832 1.456.555 2.704 1.35 3.747 2.385 1.042 1.035 1.852 2.29 2.43 3.77.577 1.476.866 3.137.866 4.982 0 1.86-.29 3.537-.866 5.03-.578 1.492-1.388 2.76-2.43 3.802-1.043 1.04-2.29 1.84-3.747 2.4-1.455.56-3.067.84-4.837.84-1.785 0-3.41-.28-4.87-.85-1.464-.56-2.724-1.37-3.78-2.41-1.06-1.05-1.876-2.31-2.454-3.81-.577-1.49-.866-3.17-.866-5.03 0-1.85.29-3.51.866-4.99.578-1.48 1.395-2.74 2.453-3.77 1.05-1.04 2.31-1.83 3.78-2.39 1.46-.56 3.08-.83 4.87-.83zm0 18.877c1.605 0 2.786-.566 3.544-1.7.757-1.13 1.136-2.852 1.136-5.162s-.38-4.028-1.136-5.153c-.758-1.125-1.94-1.688-3.544-1.688-1.65 0-2.857.563-3.623 1.688-.765 1.125-1.147 2.842-1.147 5.152s.382 4.032 1.148 5.164c.765 1.133 1.972 1.7 3.622 1.7zM74.095 39V15.668h4.32c.435 0 .8.097 1.09.292.294.195.5.487.62.877l.405 1.35c.45-.42.915-.81 1.395-1.17.48-.36.994-.663 1.54-.91.55-.248 1.14-.443 1.78-.586.636-.14 1.33-.21 2.08-.21 1.275 0 2.404.22 3.386.67.99.45 1.82 1.06 2.49 1.85.68.79 1.19 1.73 1.53 2.82.35 1.09.52 2.27.52 3.55V39h-6.98V24.172c0-1.14-.26-2.028-.78-2.666-.52-.637-1.3-.956-2.32-.956-.76 0-1.48.165-2.16.495-.67.33-1.32.772-1.93 1.327V39H74.1zm36.495-23.692c1.77 0 3.382.277 4.837.832 1.456.555 2.704 1.35 3.747 2.385 1.042 1.035 1.852 2.29 2.43 3.77.577 1.476.866 3.137.866 4.982 0 1.86-.29 3.537-.866 5.03-.578 1.492-1.388 2.76-2.43 3.802-1.043 1.04-2.29 1.84-3.747 2.4-1.455.56-3.067.84-4.837.84-1.785 0-3.41-.28-4.87-.85-1.464-.56-2.724-1.37-3.78-2.41-1.06-1.05-1.876-2.31-2.454-3.81-.577-1.49-.866-3.17-.866-5.03 0-1.85.29-3.51.866-4.99.578-1.48 1.395-2.74 2.453-3.77 1.05-1.04 2.31-1.83 3.78-2.39 1.46-.56 3.08-.83 4.87-.83zm0 18.877c1.605 0 2.786-.566 3.544-1.7.757-1.13 1.136-2.852 1.136-5.162s-.38-4.028-1.136-5.153c-.758-1.125-1.94-1.688-3.544-1.688-1.65 0-2.857.563-3.623 1.688-.765 1.125-1.147 2.842-1.147 5.152s.382 4.032 1.148 5.164c.765 1.133 1.972 1.7 3.622 1.7zM126.295 39V15.668h4.32c.435 0 .8.097 1.09.292.294.195.5.487.62.877l.383 1.26c.39-.405.794-.776 1.215-1.113.42-.338.873-.63 1.36-.878.488-.247 1.013-.442 1.576-.585.56-.14 1.18-.21 1.85-.21 1.41 0 2.57.37 3.5 1.09.92.73 1.62 1.7 2.1 2.92.39-.72.86-1.33 1.43-1.84.56-.51 1.17-.92 1.82-1.24.65-.31 1.34-.54 2.07-.69.72-.15 1.45-.22 2.17-.22 1.33 0 2.52.2 3.55.6 1.03.4 1.9.98 2.6 1.73.69.76 1.22 1.69 1.58 2.79.36 1.1.54 2.35.54 3.75V39h-6.97V24.172c0-2.415-1.04-3.622-3.11-3.622-.95 0-1.73.31-2.35.934-.63.622-.94 1.518-.94 2.688V39h-6.98V24.172c0-1.335-.27-2.272-.79-2.812s-1.3-.81-2.32-.81c-.63 0-1.23.142-1.79.427-.56.286-1.09.668-1.59 1.148V39h-6.98zm45.945-23.332V39h-6.975V15.668h6.975zm.81-6.39c0 .555-.112 1.076-.338 1.563-.225.49-.532.92-.922 1.29s-.844.66-1.36.88c-.52.22-1.07.33-1.655.33-.57 0-1.102-.11-1.597-.32-.496-.21-.934-.51-1.317-.87-.38-.36-.68-.79-.9-1.28-.21-.48-.32-1-.32-1.56 0-.57.11-1.1.33-1.59.22-.49.52-.93.9-1.3.39-.37.82-.66 1.32-.88.5-.21 1.03-.31 1.6-.31.59 0 1.14.11 1.66.32.52.21.97.51 1.36.88.39.38.7.81.93 1.31.23.497.34 1.03.34 1.6zM193.975 39c-.66 0-1.16-.09-1.496-.27-.34-.18-.62-.555-.85-1.125l-.5-1.282c-.59.495-1.15.93-1.69 1.304-.54.376-1.1.694-1.68.957-.58.262-1.19.457-1.85.585-.65.12-1.38.19-2.17.19-1.07 0-2.03-.14-2.91-.42-.87-.28-1.61-.69-2.22-1.23-.61-.54-1.08-1.21-1.41-2.02-.33-.81-.5-1.73-.5-2.78 0-.83.21-1.67.63-2.54.42-.87 1.15-1.67 2.18-2.38 1.04-.72 2.43-1.31 4.19-1.79 1.752-.48 3.964-.75 6.634-.81v-.99c0-1.37-.28-2.35-.847-2.96-.56-.61-1.36-.91-2.394-.91-.823 0-1.5.09-2.023.27-.52.18-.99.38-1.4.6-.42.22-.82.42-1.21.6s-.858.27-1.398.27c-.48 0-.89-.12-1.228-.35-.34-.23-.607-.52-.8-.87l-1.26-2.19c1.41-1.247 2.972-2.17 4.69-2.78 1.72-.61 3.56-.91 5.523-.91 1.41 0 2.68.23 3.81.685 1.13.46 2.09 1.1 2.88 1.916.782.816 1.39 1.79 1.81 2.91.42 1.125.63 2.355.63 3.69V39h-3.2zm-8.01-4.252c.9 0 1.687-.158 2.362-.473.676-.315 1.358-.825 2.048-1.53v-3.24c-1.395.06-2.542.18-3.442.36-.9.18-1.613.405-2.138.675-.525.27-.89.577-1.09.922-.204.346-.305.72-.305 1.125 0 .796.217 1.354.653 1.677.435.322 1.072.483 1.912.483z"/><path fill="#DEDEDE" d="M208.96 16.905c.97 0 1.825.142 2.565.427.74.286 1.365.66 1.875 1.125.51.466.91 1.003 1.2 1.613.29.61.47 1.235.54 1.875l-3 .6c-.05.01-.092.017-.127.022-.036.006-.073.008-.113.008-.42 0-.73-.22-.93-.66-.23-.52-.497-.915-.803-1.185-.305-.27-.707-.405-1.207-.405-.35 0-.655.065-.915.195s-.477.3-.652.51c-.176.21-.308.455-.398.735-.09.28-.135.57-.135.87 0 .26.022.51.067.75.046.24.12.482.226.727.105.246.25.498.435.758s.422.54.712.84l5.4 5.7c.27-.6.485-1.225.645-1.875.16-.65.275-1.325.345-2.025.02-.28.112-.5.278-.66.165-.16.382-.24.652-.24h2.94c0 1.46-.195 2.822-.585 4.087-.39 1.266-.945 2.423-1.665 3.473L220.9 39h-4.59c-.23 0-.435-.012-.615-.038-.18-.025-.347-.067-.502-.127-.156-.06-.303-.145-.443-.255-.14-.11-.29-.25-.45-.42l-.945-.99c-.95.66-1.987 1.17-3.112 1.53-1.126.36-2.323.54-3.593.54-.87 0-1.722-.15-2.558-.45-.835-.3-1.577-.727-2.227-1.282-.65-.556-1.175-1.228-1.575-2.018-.4-.79-.6-1.675-.6-2.655 0-.66.102-1.285.308-1.875.205-.59.492-1.137.862-1.643.37-.505.812-.964 1.327-1.38.516-.415 1.078-.777 1.688-1.087-.47-.73-.81-1.445-1.02-2.145-.21-.7-.315-1.38-.315-2.04 0-.78.142-1.517.428-2.212.285-.696.7-1.305 1.245-1.83.545-.526 1.214-.943 2.01-1.253.795-.31 1.707-.465 2.737-.465zm-4.53 15.555c0 .48.072.915.218 1.305.145.39.352.725.622 1.005.27.28.592.497.968.652.375.156.792.233 1.252.233.67 0 1.292-.087 1.867-.263.576-.175 1.113-.422 1.613-.742l-5.025-5.325c-.55.45-.94.94-1.17 1.47-.23.53-.345 1.085-.345 1.665z"/><path fill="#FF7600" d="M244.805 6.217v5.85H231.35v8.303h11.205v5.872H231.35V39h-7.65V6.218h21.105zm11.16 9.45V39h-6.975V15.668h6.975zm.81-6.39c0 .556-.112 1.077-.337 1.564-.226.49-.533.92-.923 1.29s-.844.66-1.36.88c-.52.22-1.07.33-1.655.33-.57 0-1.102-.11-1.597-.32-.496-.21-.934-.51-1.317-.87-.382-.36-.682-.79-.9-1.28-.217-.48-.326-1-.326-1.56 0-.57.11-1.1.326-1.59.218-.49.518-.93.9-1.3.383-.37.82-.66 1.316-.88.496-.21 1.028-.31 1.598-.31.585 0 1.136.11 1.654.32.517.21.97.51 1.36.88.39.38.698.81.923 1.31.226.497.338 1.03.338 1.6zM261.59 39V15.668h4.32c.435 0 .8.097 1.09.292.294.195.5.487.62.877l.405 1.35c.45-.42.915-.81 1.395-1.17.48-.36.994-.663 1.54-.91.55-.248 1.14-.443 1.78-.586.636-.14 1.33-.21 2.08-.21 1.275 0 2.404.22 3.386.67.983.45 1.81 1.06 2.486 1.85.676.79 1.185 1.73 1.53 2.82.346 1.09.518 2.27.518 3.55V39h-6.975V24.172c0-1.14-.262-2.028-.787-2.666-.526-.637-1.298-.956-2.318-.956-.765 0-1.485.165-2.16.495-.675.33-1.32.772-1.935 1.327V39h-6.975zm42.21 0c-.66 0-1.16-.09-1.496-.27-.338-.18-.62-.555-.844-1.125l-.495-1.282c-.585.495-1.147.93-1.688 1.304-.54.376-1.098.694-1.676.957-.57.262-1.19.457-1.84.585-.65.12-1.37.19-2.17.19-1.06 0-2.03-.14-2.9-.42-.87-.28-1.61-.69-2.21-1.23s-1.07-1.21-1.4-2.02c-.33-.81-.49-1.73-.49-2.78 0-.83.21-1.67.63-2.54.42-.87 1.15-1.67 2.18-2.38 1.04-.72 2.43-1.31 4.19-1.79 1.76-.48 3.97-.75 6.64-.81v-.99c0-1.37-.28-2.35-.84-2.96-.56-.61-1.36-.91-2.39-.91-.82 0-1.5.09-2.02.27-.53.18-.99.38-1.41.6-.41.22-.81.42-1.2.6s-.852.27-1.392.27c-.48 0-.89-.12-1.223-.35-.34-.23-.6-.52-.8-.87l-1.26-2.19c1.41-1.247 2.98-2.17 4.69-2.78 1.72-.61 3.56-.91 5.52-.91 1.41 0 2.68.23 3.82.685 1.13.46 2.09 1.1 2.88 1.916.786.816 1.39 1.79 1.81 2.91.42 1.125.63 2.355.63 3.69V39h-3.2zm-8.01-4.252c.9 0 1.687-.158 2.362-.473.676-.315 1.358-.825 2.048-1.53v-3.24c-1.395.06-2.542.18-3.442.36-.9.18-1.613.405-2.138.675-.525.27-.89.577-1.09.922-.204.346-.305.72-.305 1.125 0 .796.217 1.354.652 1.677.436.322 1.073.483 1.913.483zM311.945 39V15.668h4.32c.435 0 .8.097 1.09.292.294.195.5.487.62.877l.405 1.35c.45-.42.915-.81 1.395-1.17.48-.36.994-.663 1.54-.91.55-.248 1.14-.443 1.78-.586.636-.14 1.33-.21 2.08-.21 1.275 0 2.404.22 3.386.67.99.45 1.82 1.06 2.49 1.85.68.79 1.19 1.73 1.53 2.82.35 1.09.52 2.27.52 3.55V39h-6.97V24.172c0-1.14-.26-2.028-.78-2.666-.52-.637-1.29-.956-2.31-.956-.76 0-1.48.165-2.16.495-.67.33-1.32.772-1.93 1.327V39h-6.97zm43.515-20.543c0 .48-.09.938-.27 1.373-.18.435-.39.81-.63 1.125l-9.743 12.87h10.418V39h-18.45v-2.835c0-.285.08-.64.236-1.07.16-.426.38-.835.67-1.225l9.83-13.027h-10.1v-5.175h18.05v2.79zM375.62 39c-.66 0-1.16-.09-1.496-.27-.338-.18-.62-.555-.844-1.125l-.495-1.282c-.585.495-1.147.93-1.688 1.304-.54.376-1.098.694-1.676.957-.57.262-1.19.457-1.84.585-.65.12-1.37.19-2.17.19-1.06 0-2.03-.14-2.9-.42-.87-.28-1.61-.69-2.21-1.23s-1.07-1.21-1.4-2.02c-.33-.81-.49-1.73-.49-2.78 0-.83.21-1.67.63-2.54.42-.87 1.15-1.67 2.18-2.38 1.04-.72 2.43-1.31 4.19-1.79 1.76-.48 3.97-.75 6.64-.81v-.99c0-1.37-.28-2.35-.84-2.96-.56-.61-1.36-.91-2.39-.91-.82 0-1.5.09-2.02.27-.53.18-.99.38-1.41.6-.41.22-.81.42-1.2.6s-.852.27-1.392.27c-.48 0-.89-.12-1.223-.35-.34-.23-.6-.52-.8-.87l-1.26-2.19c1.41-1.247 2.98-2.17 4.69-2.78 1.72-.61 3.56-.91 5.52-.91 1.41 0 2.68.23 3.82.685 1.13.46 2.09 1.1 2.88 1.916.786.816 1.39 1.79 1.81 2.91.42 1.125.63 2.355.63 3.69V39h-3.195zm-8.01-4.252c.9 0 1.687-.158 2.363-.473.675-.315 1.357-.825 2.047-1.53v-3.24c-1.395.06-2.542.18-3.442.36-.9.18-1.613.405-2.138.675-.525.27-.89.577-1.09.922-.204.346-.305.72-.305 1.125 0 .796.217 1.354.652 1.677.436.322 1.073.483 1.913.483z"/></g></svg>