<svg xmlns="http://www.w3.org/2000/svg" viewBox="0 0 400 246.6"><path d="M57.3 39.5h3.5c21.8 0 27.1 11.4 27.1 39.3 0 28.2-5.6 36.1-28.2 36.1h-2.4V39.5zM86 121.9c30-6.1 43.6-21.8 43.6-44.4 0-30.8-21-49.7-63.5-49.7H2v8.8c13 1.1 14.4 5.3 14.4 17.8v137.1c0 12.2-3.2 16.7-14.4 17.8v8.8h69.6v-8.8c-11.4-1.1-14.4-5.6-14.4-17.8v-65.4h4c9 0 16.2 3.5 18.6 11.7 3.7 13 4 41.7 9 60.1 5 17.3 17.3 21.5 33.2 21.5 12.2 0 21-3.7 24.5-6.1l-.5-8.8c-10.6 2.7-14.9-1.9-19.4-32.2-5-33.1-16.4-45.3-40.6-50.4z"/><path d="M243.1 131.5s.6-2-4.5-2h-9.8c-2.6 0-11 .4-11 .4h-7.9c-2.6 0-5.3 1-8 .6-2.7-.5-7-.9-8.7-.5-1.6.5-3.6 1.3-6.6 1.3h-5s-3.9.8-6.2 0c-2.3-.8-6.6.4-6.6.4s-2 .9-4.3.5c-2.3-.5-4.9-1.2-5.6-.5-.7.7-1.9 1.8-3.9 1.8h-6c-1.4 0-2.8.7-5 .7s-4-1.6-4-1.6l-2.5-1.3s-.6-1.4 1.8-1.4h3.8s1.3-.9 3-.9c1.8 0 3.9-1.4 6.4-2.5 2.6-1.1 5.2-3.7 6.2-4.6.9-.9.4-3.2 1.5-3.2s1.5-4.5 1.5-4.5-.6-2.6 2.6-2.6 3.4-.8 5-.8 2.7-1.2 2.7-2.7c0-1.5 1.1-4.2 3.3-4.9 2.3-.6 4.5-2.8 5.5-3.9 1.1-1.1 1.1-3.5 3.5-3.5s9.4 1.5 11.8.8c2.3-.8 3.4-.6 6.5-.6 3 0 4.3-.9 6.7-1.5 2.3-.6 5.3-2.6 7.5-2.6s4-1.2 5.6-1.2h3.9s1.9-1.4 4-1.4 3.8-.1 3.8-.1.9-.8 3.3-.8h2.3s1.8-.9 3.6-.9h2.7s1.1-1.2 3.2-1.2 6.7.1 6.7-1.4 1.2-3 1.8-3.6c.6-.6.9-3.5.9-3.5s.4-1.1 1.4-2.1c1-1 1-3.4 1-3.4s.5-1.5 1.9-2.9 3.1-3 3.1-3 2-.9 2-4.5c0-3.5 3-5 3-5s2.7-1.2 2.1-4.8c-.6-3.6.4-4.6.4-4.6s1.2-2.2 1.2-2.8c0-.6 1.3-2.6 2.3-3.6 1-1 1-2.9 1-2.9l2-2c1.4-1.4.4-2.4 1.5-3.5s1.1-2.6 1.1-2.6 2.9-1.6 2.9-3.2c0-1.5.6-2.2.6-2.2s1.4-2.2 2.4-3.2 1.6-2.7 1.6-3.9c0-1.2 1.6-2 1.6-2s.8-2.1 1.8-3c1-1 1.4-2.2 1.4-2.2s4.8-3.4 7.3-4.7c2.5-1.3 3.6-1.3 5.3-1.3 1.6 0 1.9-.3.9.7-1 1-1.9 3.4-.3 4 1.5.6 2 2.7 1.5 3.2s-1.1 3.6.5 3.6c1.5 0 2.2.8 2.2 2.1s.5 1.8 0 2.3c-.5.5-.3 2.6.4 2.6s3.3 1.4 3.3 1.4 2.3 2 3.4.9 3.4-.7 5.6-.7c2.2 0 2.9.8 2.9 3.3s.2 3.6-.9 4.7-1.2 3.8-1.2 3.8.4 1.2 1.5 0c1.2-1.2 1.4 1.5 1.4 2.2l-.5 5.9s-.4 3.8-.9 6.7c-.6 2.9-1.5 4.9-2.5 5.9s-.8 3.3-.8 3.3-1.8 2-1.8 3.3c0 1.3-.5 2.5-1.2 3.2-.6.6-1.6 2.2-1.6 2.2s.9 1.3-.5 2.7c-1.3 1.3-2.1 1.4-2.1 2.1 0 .7.4 1.8-.8 2.9-1.2 1.2-2.8 4.9.5 5.5 3.3.6 5.1 1 5.6 1.5s2.3 1.7 3.4.5c1.1-1.1 4.9.1 4.9.1s2.9-.2 3.6.6c.8.8 2.3 1.4 3.6.1 1.3-1.3 3.5-1.3 4.8-1.3 1.3 0 12.7 1.1 21 2 8.3.9 17 2.2 17 2.2l2.6.5s.7.8 2.5.8 4.3.2 4.3.8 1.7 1.2 2.2.7c.5-.5 1.3 2.2 2.2 2.2s2.9 1.6 3.9 2.6 2.8 4.2.7 3.6c-2.1-.6-4-.6-4 .9s-.1 3.2-1.6 3.2-4.8 1.6-4 2.5c.8.8 1.3 3.2-.6 3.2s-4.7-.1-4.7-.1-2.2 1.5-1.2 5.3c1.1 3.8 4 6.9 4 6.9s1.9 4.3-.2 4.3-3.3 1.1-3.3 1.1-2.3.9-3.4-.1c-1.1-1.1-4.5-.4-5 .2-.6.6-.9 2.1.6 2.1s1.4.1.6.9c-.8.8-2.5 1.6-2.5 1.6s-3.3-.8-3.3.1-.6 1.3-1.9 1.3c-1.3 0-2.8.5-2.8.5s-1.8.9-3.2.9c-1.4 0-6.6-.6-6.6-.6s-1.4 1.5-3.5.6-15.2-.4-20.2-.9c-4.9-.6-20.4-2.2-24.3-2.2-3.9 0-8.1.7-8.8 0-.7-.7-7.6-1.7-8.8-.5-1.2 1.2-1.8 2.8-1.8 2.8s-1.6 2.2-1.6 3.3c0 1.1.4 1.8-.5 2.7-.9.9-2.2 2.7-2.2 4 0 1.3-.3 1.8-1.1 2.6s-.5 5.1-1.4 6c-.9.9-2.6 4.6-2.6 6.1s-.4 3.9-1.9 5.4c-1.5 1.5-1.8 6.2-1.8 6.2s-2.6.5-2.6 2.6c0 2.2.2 4.2-.9 5.2-1.1 1.1-1.1 2.3-1.1 2.3s-.6 4.2-1.4 5c-.8.8-1.9 3.8-1.9 3.8s-1.2 2.6-1.8 4.2c-.6 1.6.2 2.9-.9 4.1-1.2 1.2-2.6 4.7-2.6 5.9s-1.9 2.1-1.9 3c0 .9-.8 6.1-.8 6.1s-1.9 2.7-1.9 3.8c0 1.1-1.2 4.6-1.2 4.6s-2 3.3-2 4.3c0 1.1-.5 5.3-1.3 6.1-.8.8-1.9 3.9-1.9 3.9s-.8 4.8-4.2 7.3c-3.4 2.5-4.6 2.8-3.4-.2 1.2-3 4.1-10.6 3-14.3-1.1-3.8-3.5-4.2-3.5-5.6 0-1.4.6-2.5-1.6-3-2.2-.6-2-2.1-2.7-2.1-.7 0-2.2-1.3-1.2-4 1.1-2.7 1.2-7.5-.4-7.5-1.5 0-2.9.5-2.9-1.4s-1.2-3.1-1.2-3.1.4-2.1-.2-2.7c-.6-.6-.2-2.2-2.1-4.1-1.9-1.9-2.8-3.3-1.9-4.2.9-.9 2.1-3.4 2.1-4.9 0-1.5 2.3-2.9 2.3-2.9s.2-3.8 1.3-4.8c1.1-1.1 2.9-11.4 2.9-17.9 0-6.6 2.7-14.1 2.7-14.1s1.2-8 1.8-9.6c1.3-2.1 1.3-3.7 1.3-3.7z" fill="#1374bb"/></svg>
